<svg id="svg" xmlns="http://www.w3.org/2000/svg" xmlns:xlink="http://www.w3.org/1999/xlink" width="400" height="341.6149068322981" viewBox="0, 0, 400,341.6149068322981"><g id="svgg"><path id="path0" d="M0.000 170.940 L 0.000 341.880 200.000 341.880 L 400.000 341.880 400.000 170.940 L 400.000 0.000 200.000 0.000 L 0.000 0.000 0.000 170.940 M202.629 30.883 C 292.901 92.511,299.932 97.436,297.642 97.436 C 296.225 97.436,286.650 92.033,231.282 59.993 C 198.255 40.882,199.375 41.481,197.641 42.001 C 196.248 42.419,196.919 42.037,157.094 65.119 C 106.864 94.232,99.561 98.313,98.894 97.638 C 98.382 97.119,105.392 91.927,121.880 80.612 C 148.233 62.530,193.631 31.484,195.352 30.368 C 198.230 28.503,199.249 28.575,202.629 30.883 M201.562 159.475 C 203.115 160.124,203.761 161.661,203.761 164.710 C 203.761 168.112,204.054 168.390,207.093 167.878 C 212.304 166.999,216.561 169.236,219.318 174.302 C 220.547 176.559,220.914 176.523,222.253 174.011 C 224.905 169.035,230.714 166.512,235.675 168.180 C 236.594 168.489,237.844 168.551,239.826 168.386 C 245.334 167.927,245.605 168.387,245.756 178.440 C 245.894 187.664,245.759 188.824,244.392 190.191 L 243.372 191.210 240.282 190.991 C 237.925 190.824,236.740 190.903,235.287 191.325 C 230.119 192.828,224.726 190.236,222.055 184.965 C 220.984 182.851,220.692 182.896,219.225 185.407 C 216.245 190.507,211.147 192.798,206.066 191.321 C 204.637 190.905,203.434 190.824,201.135 190.987 C 198.219 191.194,198.052 191.167,197.081 190.332 L 196.068 189.461 195.972 175.474 C 195.876 161.569,195.880 161.482,196.618 160.544 C 197.866 158.957,199.484 158.607,201.562 159.475 M153.468 160.193 C 155.420 161.835,155.521 164.017,153.750 166.286 C 152.903 167.371,152.787 167.717,153.116 168.167 C 154.755 170.407,154.856 171.078,154.864 179.693 C 154.872 188.435,154.696 189.674,153.320 190.576 C 152.016 191.430,149.292 191.278,148.139 190.286 L 147.179 189.462 147.087 180.116 C 146.986 170.017,146.882 170.759,148.767 168.167 C 149.093 167.718,148.975 167.368,148.128 166.286 C 144.874 162.126,149.497 156.851,153.468 160.193 M305.994 159.835 C 308.281 161.017,308.613 164.072,306.706 166.385 C 305.740 167.558,305.694 167.722,306.158 168.362 C 307.563 170.302,307.681 170.868,307.886 176.640 C 308.305 188.490,307.584 191.111,303.901 191.111 C 300.272 191.111,299.829 190.085,299.829 181.681 C 299.829 178.242,299.682 175.042,299.502 174.569 L 299.175 173.709 297.023 174.757 C 295.840 175.333,294.649 175.914,294.376 176.048 C 292.839 176.805,292.505 177.969,292.267 183.387 C 291.976 190.032,291.423 191.111,288.316 191.111 C 284.361 191.111,284.102 190.427,284.103 179.947 C 284.104 168.837,284.511 167.888,289.060 168.404 C 291.472 168.678,291.777 168.675,294.727 168.361 C 296.924 168.126,297.003 168.146,298.248 169.239 L 299.521 170.357 300.701 169.214 C 302.113 167.846,302.124 167.735,301.003 166.265 C 298.050 162.394,301.743 157.637,305.994 159.835 M72.796 160.842 C 74.097 161.515,74.254 161.994,74.509 166.065 C 74.851 171.516,74.877 171.512,80.542 165.086 C 84.608 160.473,87.486 159.250,90.761 160.742 C 93.023 161.773,92.408 163.428,87.873 168.507 C 82.580 174.435,82.534 173.585,88.574 181.560 C 93.904 188.598,94.276 189.996,91.102 191.048 C 87.752 192.159,85.831 191.058,81.700 185.665 C 77.093 179.650,74.540 180.043,74.532 186.769 C 74.527 191.298,69.105 193.116,66.935 189.316 C 66.152 187.946,66.314 163.153,67.114 161.932 C 68.150 160.351,70.846 159.833,72.796 160.842 M280.311 160.839 C 281.530 161.469,282.200 163.056,281.935 164.686 C 281.504 167.344,280.057 167.843,272.743 167.855 L 267.708 167.863 267.122 168.757 C 265.664 170.983,267.403 171.882,273.265 171.932 C 278.648 171.977,280.000 172.712,280.000 175.595 C 280.000 178.387,278.967 178.900,272.875 179.130 C 267.400 179.338,266.344 179.815,266.835 181.859 C 267.216 183.440,267.783 183.590,273.410 183.590 C 280.541 183.590,282.051 184.295,282.051 187.624 C 282.051 191.113,280.557 191.551,269.215 191.392 C 257.657 191.231,258.462 192.402,258.462 175.726 C 258.462 162.867,258.557 162.058,260.211 160.899 C 261.333 160.113,278.806 160.060,280.311 160.839 M109.038 168.269 C 109.552 168.468,111.140 168.516,112.878 168.384 C 118.527 167.954,118.767 168.353,118.918 178.440 C 119.056 187.664,118.921 188.824,117.554 190.191 L 116.535 191.210 113.444 190.991 C 111.087 190.824,109.902 190.903,108.449 191.325 C 97.566 194.489,89.408 180.259,97.090 171.510 C 99.998 168.197,105.212 166.783,109.038 168.269 M138.974 168.515 C 142.984 170.293,144.025 172.841,144.198 181.307 C 144.376 190.046,143.976 191.111,140.513 191.111 C 137.202 191.111,136.663 190.037,136.416 182.955 L 136.222 177.364 135.114 176.374 C 131.845 173.453,129.578 176.490,129.575 183.795 C 129.572 189.921,128.902 191.111,125.456 191.111 C 121.712 191.111,121.163 189.256,121.433 177.513 C 121.640 168.491,122.538 167.269,128.034 168.537 C 129.086 168.780,129.954 168.700,131.795 168.191 C 134.505 167.442,136.787 167.545,138.974 168.515 M174.644 168.597 C 176.551 169.413,177.354 169.395,179.373 168.492 C 182.862 166.932,187.267 167.579,190.007 170.055 C 192.530 172.334,192.954 173.901,193.099 181.476 C 193.265 190.119,192.867 191.111,189.231 191.111 C 185.857 191.111,185.383 190.145,185.203 182.906 C 185.056 177.016,184.959 176.606,183.538 175.871 C 180.878 174.495,179.489 176.905,179.486 182.906 C 179.482 189.550,178.697 191.111,175.358 191.111 C 172.002 191.111,171.322 189.574,171.297 181.940 L 171.282 177.383 170.283 176.384 C 169.031 175.132,168.499 175.131,167.099 176.382 L 165.983 177.379 165.809 182.963 C 165.588 190.076,165.054 191.111,161.607 191.111 C 157.959 191.111,157.459 189.441,157.665 177.936 C 157.835 168.473,157.861 168.431,163.761 168.343 C 165.735 168.313,167.966 168.133,168.718 167.941 C 170.409 167.510,172.694 167.763,174.644 168.597 M324.495 167.986 C 331.076 169.536,334.471 175.402,329.855 177.249 C 328.106 177.949,326.710 177.748,325.109 176.567 C 321.309 173.764,317.373 175.647,317.703 180.109 C 317.981 183.855,321.207 185.335,324.538 183.244 C 330.992 179.191,335.076 185.411,328.751 189.661 C 322.376 193.945,313.944 191.620,310.651 184.670 C 306.377 175.648,314.656 165.671,324.495 167.986 M104.757 175.517 C 100.781 177.292,101.571 183.588,105.842 184.161 C 109.399 184.638,111.837 180.986,110.227 177.593 C 109.265 175.565,106.770 174.619,104.757 175.517 M206.503 175.628 C 203.241 177.305,202.890 181.760,205.877 183.581 C 208.961 185.462,212.415 183.360,212.420 179.600 C 212.424 176.382,209.219 174.231,206.503 175.628 M231.807 175.486 C 229.969 176.124,228.965 177.868,229.145 180.109 C 229.607 185.868,237.585 185.443,237.601 179.658 C 237.609 176.478,234.791 174.448,231.807 175.486 M296.090 234.500 C 294.505 236.725,286.167 244.343,246.667 279.656 C 229.556 294.953,212.282 310.404,208.281 313.991 C 200.533 320.938,199.234 321.873,197.830 321.521 C 197.080 321.333,174.613 302.578,125.641 261.260 C 108.017 246.390,100.513 239.702,100.513 238.865 C 100.513 237.546,109.590 244.082,185.128 299.792 C 197.591 308.984,198.237 309.342,200.232 308.172 C 200.842 307.814,213.990 297.521,229.449 285.299 C 292.974 235.078,298.889 230.569,296.090 234.500 " stroke="none" fill="#040404" fill-rule="evenodd"></path><path id="path1" d="M149.744 162.051 C 148.892 162.903,148.870 163.825,149.685 164.562 C 151.505 166.210,153.872 163.786,152.137 162.051 C 151.761 161.675,151.222 161.368,150.940 161.368 C 150.658 161.368,150.120 161.675,149.744 162.051 M198.481 162.127 C 198.023 162.781,197.949 164.611,197.949 175.214 C 197.949 190.069,197.903 189.920,202.078 188.670 C 203.188 188.337,203.790 188.398,206.148 189.079 C 213.105 191.089,219.098 186.012,218.339 178.751 C 217.645 172.108,211.896 168.349,205.673 170.469 C 202.642 171.502,201.709 170.379,201.709 165.695 C 201.709 162.550,201.196 161.368,199.829 161.368 C 199.373 161.368,198.778 161.703,198.481 162.127 M302.982 161.900 C 301.138 163.192,302.726 165.787,304.786 164.849 C 306.239 164.187,305.547 161.368,303.932 161.368 C 303.827 161.368,303.400 161.607,302.982 161.900 M69.354 163.047 L 68.547 163.700 68.547 175.660 C 68.547 186.942,68.584 187.661,69.198 188.340 C 70.574 189.860,72.479 188.679,72.479 186.305 C 72.479 183.022,74.125 179.912,76.360 178.972 C 78.163 178.214,79.036 178.841,82.561 183.423 C 86.286 188.265,87.162 189.060,88.775 189.060 C 91.244 189.060,90.855 188.002,86.035 181.608 C 79.990 173.589,79.993 174.150,85.959 167.521 C 88.664 164.516,89.343 163.232,88.508 162.704 C 86.928 161.703,85.344 162.770,81.035 167.741 C 73.948 175.915,72.793 175.945,72.485 167.961 C 72.272 162.433,71.537 161.280,69.354 163.047 M261.335 163.112 C 260.551 163.978,260.127 184.981,260.845 187.426 C 261.386 189.269,262.493 189.472,271.270 189.340 C 279.157 189.221,279.788 189.073,279.590 187.388 C 279.418 185.926,278.311 185.652,272.547 185.646 C 265.452 185.639,264.230 184.853,264.709 180.603 C 265.039 177.674,265.805 177.296,271.815 177.095 C 277.164 176.916,277.588 176.785,277.602 175.311 C 277.611 174.298,276.412 174.017,272.074 174.017 C 266.165 174.016,264.631 173.136,264.622 169.744 C 264.612 166.307,265.488 165.878,272.821 165.728 C 279.303 165.595,281.022 164.831,279.121 162.930 C 278.169 161.978,262.214 162.142,261.335 163.112 M181.538 170.068 C 180.692 170.324,179.282 170.811,178.405 171.151 L 176.810 171.769 174.552 170.842 C 171.957 169.776,169.710 169.651,167.479 170.450 C 166.370 170.846,165.496 170.916,164.103 170.719 C 159.904 170.126,160.000 169.912,160.000 179.841 C 160.000 188.780,160.157 189.438,162.174 188.931 C 163.407 188.622,163.760 187.144,163.768 182.257 C 163.779 176.297,164.983 173.859,168.124 173.438 C 171.955 172.924,173.095 174.819,173.346 182.119 C 173.547 187.954,173.872 189.060,175.385 189.060 C 176.896 189.060,177.256 187.902,177.439 182.443 C 177.663 175.819,179.006 173.333,182.364 173.333 C 185.962 173.333,187.124 175.510,187.350 182.678 C 187.552 189.046,188.333 190.470,190.459 188.344 C 191.394 187.409,191.306 176.127,190.347 174.014 C 188.824 170.656,185.106 168.991,181.538 170.068 M319.770 169.926 C 313.676 171.147,310.268 177.278,312.326 183.318 C 314.449 189.547,323.543 191.825,328.284 187.314 C 331.052 184.681,329.003 183.293,325.281 185.280 C 320.424 187.872,315.541 185.098,315.563 179.761 C 315.586 174.106,320.184 171.487,325.311 174.207 C 327.730 175.490,328.752 175.594,329.363 174.619 C 330.760 172.390,323.994 169.080,319.770 169.926 M101.709 170.552 C 90.860 175.698,97.050 192.451,108.541 189.039 C 110.852 188.353,111.376 188.305,112.692 188.657 C 116.555 189.690,116.724 189.366,116.862 180.691 C 117.020 170.799,116.676 169.934,112.899 170.709 C 111.488 170.998,110.745 170.974,109.480 170.599 C 106.834 169.816,103.307 169.794,101.709 170.552 M131.060 170.630 C 129.707 171.109,129.035 171.178,128.156 170.926 C 126.225 170.372,124.514 170.514,124.115 171.260 C 123.374 172.643,123.662 187.594,124.444 188.376 C 126.425 190.357,127.521 188.499,127.521 183.161 C 127.521 176.331,129.272 173.333,133.260 173.333 C 136.919 173.333,138.237 175.642,138.462 182.443 C 138.638 187.796,139.008 189.060,140.395 189.060 C 143.000 189.060,143.102 175.944,140.525 172.325 C 138.843 169.963,134.921 169.261,131.060 170.630 M228.551 170.608 C 217.934 176.007,224.128 192.806,235.358 189.069 C 237.470 188.366,237.808 188.342,239.857 188.749 C 243.495 189.472,243.564 189.329,243.700 180.718 C 243.857 170.795,243.516 169.934,239.736 170.709 C 238.326 170.998,237.583 170.974,236.318 170.599 C 233.608 169.797,230.139 169.801,228.551 170.608 M293.344 170.778 C 292.183 171.140,291.476 171.169,290.404 170.899 C 286.419 169.895,286.165 170.423,286.159 179.728 C 286.153 187.486,286.344 188.581,287.765 188.938 C 289.424 189.354,289.792 188.467,290.020 183.497 C 290.329 176.737,291.033 175.145,294.380 173.633 C 296.337 172.748,296.973 171.514,295.883 170.716 C 295.145 170.177,295.285 170.173,293.344 170.778 M149.626 171.224 C 148.679 172.269,148.783 187.416,149.744 188.376 C 150.786 189.419,151.676 189.228,152.427 187.800 C 153.083 186.555,152.962 172.321,152.288 171.358 C 151.643 170.437,150.395 170.373,149.626 171.224 M302.413 171.358 C 301.738 172.321,301.618 186.555,302.273 187.800 C 303.025 189.228,303.914 189.419,304.957 188.376 C 305.967 187.366,306.019 172.072,305.016 171.164 C 304.145 170.376,303.043 170.458,302.413 171.358 M109.704 173.936 C 115.089 177.956,112.924 186.325,106.498 186.325 C 99.475 186.325,97.499 176.420,103.942 173.512 C 105.462 172.826,108.518 173.051,109.704 173.936 M210.783 173.634 C 214.867 175.489,215.915 180.720,212.893 184.163 C 209.609 187.903,203.732 186.678,202.106 181.915 C 200.240 176.448,205.638 171.297,210.783 173.634 M236.936 174.156 C 239.467 175.831,240.446 180.022,238.978 182.900 C 235.880 188.972,227.009 186.538,227.009 179.616 C 227.009 174.315,232.561 171.261,236.936 174.156 " stroke="none" fill="#e6e6e6" fill-rule="evenodd"></path><path id="path2" d="M195.352 30.368 C 193.631 31.484,148.233 62.530,121.880 80.612 C 105.392 91.927,98.382 97.119,98.894 97.638 C 99.561 98.313,106.864 94.232,157.094 65.119 C 196.919 42.037,196.248 42.419,197.641 42.001 C 199.375 41.481,198.255 40.882,231.282 59.993 C 286.650 92.033,296.225 97.436,297.642 97.436 C 299.932 97.436,292.901 92.511,202.629 30.883 C 199.249 28.575,198.230 28.503,195.352 30.368 M198.081 159.309 C 195.846 160.212,195.866 160.063,195.972 175.474 L 196.068 189.461 197.081 190.332 C 198.052 191.167,198.219 191.194,201.135 190.987 C 203.434 190.824,204.637 190.905,206.066 191.321 C 211.147 192.798,216.245 190.507,219.225 185.407 C 220.692 182.896,220.984 182.851,222.055 184.965 C 224.726 190.236,230.119 192.828,235.287 191.325 C 236.740 190.903,237.925 190.824,240.282 190.991 L 243.372 191.210 244.392 190.191 C 245.759 188.824,245.894 187.664,245.756 178.440 C 245.605 168.387,245.334 167.927,239.826 168.386 C 237.844 168.551,236.594 168.489,235.675 168.180 C 230.714 166.512,224.905 169.035,222.253 174.011 C 220.914 176.523,220.547 176.559,219.318 174.302 C 216.561 169.236,212.304 166.999,207.093 167.878 C 204.054 168.390,203.761 168.112,203.761 164.710 C 203.761 160.211,201.402 157.968,198.081 159.309 M148.552 160.057 C 146.457 161.705,146.304 163.954,148.128 166.286 C 148.975 167.368,149.093 167.718,148.767 168.167 C 146.882 170.759,146.986 170.017,147.087 180.116 L 147.179 189.462 148.139 190.286 C 149.292 191.278,152.016 191.430,153.320 190.576 C 154.696 189.674,154.872 188.435,154.864 179.693 C 154.856 171.078,154.755 170.407,153.116 168.167 C 152.787 167.717,152.903 167.371,153.750 166.286 C 156.912 162.235,152.502 156.950,148.552 160.057 M301.682 159.961 C 299.607 161.226,299.304 164.037,301.003 166.265 C 302.124 167.735,302.113 167.846,300.701 169.214 L 299.521 170.357 298.248 169.239 C 297.003 168.146,296.924 168.126,294.727 168.361 C 291.777 168.675,291.472 168.678,289.060 168.404 C 284.511 167.888,284.104 168.837,284.103 179.947 C 284.102 190.427,284.361 191.111,288.316 191.111 C 291.423 191.111,291.976 190.032,292.267 183.387 C 292.505 177.969,292.839 176.805,294.376 176.048 C 294.649 175.914,295.840 175.333,297.023 174.757 L 299.175 173.709 299.502 174.569 C 299.682 175.042,299.829 178.242,299.829 181.681 C 299.829 190.085,300.272 191.111,303.901 191.111 C 307.584 191.111,308.305 188.490,307.886 176.640 C 307.681 170.868,307.563 170.302,306.158 168.362 C 305.694 167.722,305.740 167.558,306.706 166.385 C 309.955 162.444,305.968 157.347,301.682 159.961 M68.481 160.687 C 66.531 161.473,66.496 161.743,66.496 175.711 C 66.496 189.398,66.509 189.519,68.201 190.627 C 71.134 192.549,74.528 190.481,74.532 186.769 C 74.540 180.043,77.093 179.650,81.700 185.665 C 85.831 191.058,87.752 192.159,91.102 191.048 C 94.276 189.996,93.904 188.598,88.574 181.560 C 82.534 173.585,82.580 174.435,87.873 168.507 C 92.408 163.428,93.023 161.773,90.761 160.742 C 87.486 159.250,84.608 160.473,80.542 165.086 C 74.877 171.512,74.851 171.516,74.509 166.065 C 74.389 164.140,74.171 162.289,74.027 161.953 C 73.446 160.605,70.407 159.911,68.481 160.687 M260.211 160.899 C 258.557 162.058,258.462 162.867,258.462 175.726 C 258.462 192.402,257.657 191.231,269.215 191.392 C 280.557 191.551,282.051 191.113,282.051 187.624 C 282.051 184.295,280.541 183.590,273.410 183.590 C 267.783 183.590,267.216 183.440,266.835 181.859 C 266.344 179.815,267.400 179.338,272.875 179.130 C 278.967 178.900,280.000 178.387,280.000 175.595 C 280.000 172.712,278.648 171.977,273.265 171.932 C 267.403 171.882,265.664 170.983,267.122 168.757 L 267.708 167.863 272.743 167.855 C 280.057 167.843,281.504 167.344,281.935 164.686 C 282.200 163.056,281.530 161.469,280.311 160.839 C 278.806 160.060,261.333 160.113,260.211 160.899 M152.137 162.051 C 153.872 163.786,151.505 166.210,149.685 164.562 C 148.584 163.566,149.448 161.368,150.940 161.368 C 151.222 161.368,151.761 161.675,152.137 162.051 M201.177 162.127 C 201.554 162.665,201.709 163.707,201.709 165.695 C 201.709 170.379,202.642 171.502,205.673 170.469 C 211.896 168.349,217.645 172.108,218.339 178.751 C 219.098 186.012,213.105 191.089,206.148 189.079 C 203.790 188.398,203.188 188.337,202.078 188.670 C 197.903 189.920,197.949 190.069,197.949 175.214 C 197.949 161.822,198.010 161.368,199.829 161.368 C 200.285 161.368,200.880 161.703,201.177 162.127 M304.881 161.900 C 306.725 163.192,305.137 165.787,303.077 164.849 C 301.624 164.187,302.317 161.368,303.932 161.368 C 304.036 161.368,304.463 161.607,304.881 161.900 M71.644 162.878 C 72.227 163.303,72.329 163.923,72.485 167.961 C 72.793 175.945,73.948 175.915,81.035 167.741 C 85.344 162.770,86.928 161.703,88.508 162.704 C 89.343 163.232,88.664 164.516,85.959 167.521 C 79.993 174.150,79.990 173.589,86.035 181.608 C 90.855 188.002,91.244 189.060,88.775 189.060 C 87.162 189.060,86.286 188.265,82.561 183.423 C 79.036 178.841,78.163 178.214,76.360 178.972 C 74.125 179.912,72.479 183.022,72.479 186.305 C 72.479 188.679,70.574 189.860,69.198 188.340 C 68.584 187.661,68.547 186.942,68.547 175.660 L 68.547 163.700 69.354 163.047 C 70.318 162.266,70.762 162.234,71.644 162.878 M279.121 162.930 C 281.022 164.831,279.303 165.595,272.821 165.728 C 265.488 165.878,264.612 166.307,264.622 169.744 C 264.631 173.136,266.165 174.016,272.074 174.017 C 276.412 174.017,277.611 174.298,277.602 175.311 C 277.588 176.785,277.164 176.916,271.815 177.095 C 265.805 177.296,265.039 177.674,264.709 180.603 C 264.230 184.853,265.452 185.639,272.547 185.646 C 278.311 185.652,279.418 185.926,279.590 187.388 C 279.788 189.073,279.157 189.221,271.270 189.340 C 262.493 189.472,261.386 189.269,260.845 187.426 C 260.127 184.981,260.551 163.978,261.335 163.112 C 262.214 162.142,278.169 161.978,279.121 162.930 M102.882 167.974 C 94.179 170.402,91.126 181.345,97.294 188.006 C 100.322 191.277,104.421 192.496,108.449 191.325 C 109.902 190.903,111.087 190.824,113.444 190.991 L 116.535 191.210 117.554 190.191 C 118.921 188.824,119.056 187.664,118.918 178.440 C 118.767 168.353,118.527 167.954,112.878 168.384 C 111.140 168.516,109.552 168.468,109.038 168.269 C 107.475 167.662,104.510 167.520,102.882 167.974 M131.795 168.191 C 129.954 168.700,129.086 168.780,128.034 168.537 C 122.538 167.269,121.640 168.491,121.433 177.513 C 121.163 189.256,121.712 191.111,125.456 191.111 C 128.902 191.111,129.572 189.921,129.575 183.795 C 129.578 176.490,131.845 173.453,135.114 176.374 L 136.222 177.364 136.416 182.955 C 136.663 190.037,137.202 191.111,140.513 191.111 C 143.976 191.111,144.376 190.046,144.198 181.307 C 144.043 173.747,143.874 173.043,141.616 170.536 C 139.223 167.880,135.842 167.072,131.795 168.191 M168.718 167.941 C 167.966 168.133,165.735 168.313,163.761 168.343 C 157.861 168.431,157.835 168.473,157.665 177.936 C 157.459 189.441,157.959 191.111,161.607 191.111 C 165.054 191.111,165.588 190.076,165.809 182.963 L 165.983 177.379 167.099 176.382 C 168.499 175.131,169.031 175.132,170.283 176.384 L 171.282 177.383 171.297 181.940 C 171.322 189.574,172.002 191.111,175.358 191.111 C 178.697 191.111,179.482 189.550,179.486 182.906 C 179.489 176.905,180.878 174.495,183.538 175.871 C 184.959 176.606,185.056 177.016,185.203 182.906 C 185.383 190.145,185.857 191.111,189.231 191.111 C 192.867 191.111,193.265 190.119,193.099 181.476 C 192.954 173.901,192.530 172.334,190.007 170.055 C 187.267 167.579,182.862 166.932,179.373 168.492 C 177.354 169.395,176.551 169.413,174.644 168.597 C 172.694 167.763,170.409 167.510,168.718 167.941 M318.764 168.004 C 311.388 169.794,307.443 177.898,310.651 184.670 C 313.944 191.620,322.376 193.945,328.751 189.661 C 335.076 185.411,330.992 179.191,324.538 183.244 C 321.207 185.335,317.981 183.855,317.703 180.109 C 317.373 175.647,321.309 173.764,325.109 176.567 C 329.458 179.776,334.256 175.529,330.712 171.606 C 327.724 168.298,323.188 166.930,318.764 168.004 M186.923 170.448 C 190.112 171.760,190.859 173.753,191.034 181.421 C 191.183 187.964,190.934 189.060,189.296 189.060 C 187.754 189.060,187.529 188.321,187.350 182.678 C 187.124 175.510,185.962 173.333,182.364 173.333 C 179.006 173.333,177.663 175.819,177.439 182.443 C 177.256 187.902,176.896 189.060,175.385 189.060 C 173.872 189.060,173.547 187.954,173.346 182.119 C 173.095 174.819,171.955 172.924,168.124 173.438 C 164.983 173.859,163.779 176.297,163.768 182.257 C 163.760 187.144,163.407 188.622,162.174 188.931 C 160.157 189.438,160.000 188.780,160.000 179.841 C 160.000 169.912,159.904 170.126,164.103 170.719 C 165.496 170.916,166.370 170.846,167.479 170.450 C 169.710 169.651,171.957 169.776,174.552 170.842 L 176.810 171.769 178.405 171.151 C 182.601 169.525,184.333 169.382,186.923 170.448 M326.444 171.047 C 328.866 172.263,329.983 173.630,329.363 174.619 C 328.752 175.594,327.730 175.490,325.311 174.207 C 320.184 171.487,315.586 174.106,315.563 179.761 C 315.541 185.098,320.424 187.872,325.281 185.280 C 329.003 183.293,331.052 184.681,328.284 187.314 C 323.543 191.825,314.449 189.547,312.326 183.318 C 309.266 174.336,317.954 166.784,326.444 171.047 M109.480 170.599 C 110.745 170.974,111.488 170.998,112.899 170.709 C 116.676 169.934,117.020 170.799,116.862 180.691 C 116.724 189.366,116.555 189.690,112.692 188.657 C 111.376 188.305,110.852 188.353,108.541 189.039 C 101.803 191.040,96.273 186.888,96.273 179.829 C 96.273 172.386,102.000 168.384,109.480 170.599 M138.446 170.591 C 141.435 172.115,142.222 174.516,142.222 182.106 C 142.222 187.952,141.931 189.060,140.395 189.060 C 139.008 189.060,138.638 187.796,138.462 182.443 C 138.237 175.642,136.919 173.333,133.260 173.333 C 129.272 173.333,127.521 176.331,127.521 183.161 C 127.521 188.499,126.425 190.357,124.444 188.376 C 123.662 187.594,123.374 172.643,124.115 171.260 C 124.514 170.514,126.225 170.372,128.156 170.926 C 129.035 171.178,129.707 171.109,131.060 170.630 C 133.532 169.753,136.771 169.736,138.446 170.591 M236.318 170.599 C 237.583 170.974,238.326 170.998,239.736 170.709 C 243.516 169.934,243.857 170.795,243.700 180.718 C 243.564 189.329,243.495 189.472,239.857 188.749 C 237.808 188.342,237.470 188.366,235.358 189.069 C 228.945 191.203,223.172 186.752,223.172 179.675 C 223.172 172.376,228.919 168.408,236.318 170.599 M295.883 170.716 C 296.973 171.514,296.337 172.748,294.380 173.633 C 291.033 175.145,290.329 176.737,290.020 183.497 C 289.792 188.467,289.424 189.354,287.765 188.938 C 286.344 188.581,286.153 187.486,286.159 179.728 C 286.165 170.423,286.419 169.895,290.404 170.899 C 291.476 171.169,292.183 171.140,293.344 170.778 C 295.285 170.173,295.145 170.177,295.883 170.716 M152.288 171.358 C 152.962 172.321,153.083 186.555,152.427 187.800 C 151.676 189.228,150.786 189.419,149.744 188.376 C 148.783 187.416,148.679 172.269,149.626 171.224 C 150.395 170.373,151.643 170.437,152.288 171.358 M305.016 171.164 C 306.790 172.770,305.724 189.078,303.846 189.055 C 302.139 189.034,301.880 187.788,301.880 179.586 C 301.880 170.744,302.554 168.936,305.016 171.164 M103.942 173.512 C 97.499 176.420,99.475 186.325,106.498 186.325 C 114.475 186.325,114.940 173.823,106.988 173.137 C 105.731 173.028,104.744 173.150,103.942 173.512 M205.641 173.638 C 202.461 175.105,200.972 178.592,202.106 181.915 C 203.732 186.678,209.609 187.903,212.893 184.163 C 217.562 178.845,211.964 170.720,205.641 173.638 M231.423 173.299 C 227.640 174.527,225.813 179.223,227.689 182.900 C 230.737 188.874,239.658 186.549,239.658 179.780 C 239.658 175.260,235.490 171.979,231.423 173.299 M108.909 175.942 C 110.683 177.105,111.277 180.188,110.099 182.120 C 107.763 185.952,102.222 184.256,102.222 179.709 C 102.222 175.969,105.840 173.931,108.909 175.942 M210.490 175.907 C 213.153 177.652,213.021 182.331,210.268 183.755 C 206.260 185.827,202.036 181.145,204.537 177.401 C 206.008 175.198,208.466 174.581,210.490 175.907 M235.659 175.789 C 236.665 176.316,237.605 178.189,237.601 179.658 C 237.585 185.443,229.607 185.868,229.145 180.109 C 228.841 176.326,232.304 174.030,235.659 175.789 M294.538 234.560 C 290.732 236.974,279.590 245.659,229.449 285.299 C 213.990 297.521,200.842 307.814,200.232 308.172 C 198.237 309.342,197.591 308.984,185.128 299.792 C 109.590 244.082,100.513 237.546,100.513 238.865 C 100.513 239.702,108.017 246.390,125.641 261.260 C 174.613 302.578,197.080 321.333,197.830 321.521 C 199.234 321.873,200.533 320.938,208.281 313.991 C 212.282 310.404,229.556 294.953,246.667 279.656 C 280.196 249.682,283.112 247.049,290.511 240.082 C 296.929 234.037,298.278 232.188,294.538 234.560 " stroke="none" fill="#616161" fill-rule="evenodd"></path></g></svg>